<?xml version="1.0" encoding="utf-8"?>
<!-- Generator: Adobe Illustrator 19.1.0, SVG Export Plug-In . SVG Version: 6.00 Build 0)  -->
<svg version="1.1" id="Calque_1" xmlns="http://www.w3.org/2000/svg" xmlns:xlink="http://www.w3.org/1999/xlink" x="0px" y="0px"
	 viewBox="0 0 548.8 661.2" style="enable-background:new 0 0 548.8 661.2;" xml:space="preserve">
<style type="text/css">
	.st0{fill:url(#SVGID_1_);}
	.st1{fill:url(#B4_1_);}
	.st2{fill:url(#B3_1_);}
	.st3{fill:url(#B2_1_);}
	.st4{fill:url(#B1_1_);}
</style>
<g id="Hex_fond">
	<linearGradient id="SVGID_1_" gradientUnits="userSpaceOnUse" x1="155.2854" y1="166.9182" x2="393.4772" y2="405.11">
		<stop  offset="0" style="stop-color:#FCBF00"/>
		<stop  offset="0.1358" style="stop-color:#FCBD00"/>
		<stop  offset="0.2535" style="stop-color:#FAB500"/>
		<stop  offset="0.3646" style="stop-color:#F7A817"/>
		<stop  offset="0.4716" style="stop-color:#F4952D"/>
		<stop  offset="0.5757" style="stop-color:#EF7A3C"/>
		<stop  offset="0.6775" style="stop-color:#EA5645"/>
		<stop  offset="0.7758" style="stop-color:#E61E48"/>
		<stop  offset="0.7908" style="stop-color:#E50A48"/>
		<stop  offset="0.8016" style="stop-color:#DF0E4A"/>
		<stop  offset="0.8357" style="stop-color:#CD1751"/>
		<stop  offset="0.8715" style="stop-color:#BE1B56"/>
		<stop  offset="0.9092" style="stop-color:#B31D5A"/>
		<stop  offset="0.9501" style="stop-color:#AC1E5C"/>
		<stop  offset="1" style="stop-color:#AA1E5C"/>
	</linearGradient>
	<path class="st0" d="M431.5,205.4l-152.2-87.9c-3-1.8-6.8-1.8-9.8,0l-152.2,87.9c-3,1.8-4.9,5-4.9,8.5v148.3l32,9l258.5,0.3
		l33.5-9.3V213.9C436.4,210.4,434.5,207.1,431.5,205.4z"/>
</g>
<g id="O2">
	<path d="M277,407l127.3-35.8V232.4c0-3.5-1.9-6.7-4.9-8.5l-120.2-69.4c-3-1.8-6.8-1.8-9.8,0l-120.2,69.4c-3,1.8-4.9,5-4.9,8.5
		v138.8L271.7,407C273.5,407.4,275.3,407.4,277,407z"/>
</g>
<g id="O1_1_">
	<path d="M112.4,362.2V213.9c0-3.5,1.9-6.7,4.9-8.5l152.2-87.9c3-1.8,6.8-1.8,9.8,0l152.2,87.9c3,1.8,4.9,5,4.9,8.5v148.3L537,333.9
		V155.8c0-3.5-1.9-6.7-4.9-8.5L279.3,1.3c-3-1.8-6.8-1.8-9.8,0l-252.8,146c-3,1.8-4.9,5-4.9,8.5v178.2L112.4,362.2z"/>
</g>
<g id="Masque_1_">
	<path d="M544.7,467.6L280.1,659.3c-3.4,2.5-8.1,2.5-11.5,0L4.1,467.6c-2.5-1.8-4.1-4.8-4.1-7.9l0-100.1c0-6.5,6.2-11.2,12.5-9.4
		l259.3,72.8c1.7,0.5,3.6,0.5,5.3,0l259.3-72.8c6.3-1.8,12.5,2.9,12.5,9.4v100.1C548.8,462.8,547.3,465.8,544.7,467.6z"/>
</g>
<g id="Barres">
	<linearGradient id="B4_1_" gradientUnits="userSpaceOnUse" x1="388.3813" y1="417.7336" x2="388.3813" y2="537.0407">
		<stop  offset="0" style="stop-color:#FCBF00"/>
		<stop  offset="0.1358" style="stop-color:#FCBD00"/>
		<stop  offset="0.2535" style="stop-color:#FAB500"/>
		<stop  offset="0.3646" style="stop-color:#F7A817"/>
		<stop  offset="0.4716" style="stop-color:#F4952D"/>
		<stop  offset="0.5757" style="stop-color:#EF7A3C"/>
		<stop  offset="0.6775" style="stop-color:#EA5645"/>
		<stop  offset="0.7758" style="stop-color:#E61E48"/>
		<stop  offset="0.7908" style="stop-color:#E50A48"/>
		<stop  offset="0.8016" style="stop-color:#DF0E4A"/>
		<stop  offset="0.8357" style="stop-color:#CD1751"/>
		<stop  offset="0.8715" style="stop-color:#BE1B56"/>
		<stop  offset="0.9092" style="stop-color:#B31D5A"/>
		<stop  offset="0.9501" style="stop-color:#AC1E5C"/>
		<stop  offset="1" style="stop-color:#AA1E5C"/>
	</linearGradient>
	<path id="B4" class="st1" d="M400.1,417.9l-25.2,7.1c-1.5,0.4-2.5,1.7-2.5,3.3v105.4c0,2.8,3.1,4.4,5.4,2.7l25.2-18.3
		c0.9-0.6,1.4-1.7,1.4-2.7v-94.2C404.4,418.9,402.2,417.3,400.1,417.9z"/>
	<linearGradient id="B3_1_" gradientUnits="userSpaceOnUse" x1="312.3813" y1="439.0768" x2="312.3813" y2="592.0983">
		<stop  offset="0" style="stop-color:#FCBF00"/>
		<stop  offset="0.1358" style="stop-color:#FCBD00"/>
		<stop  offset="0.2535" style="stop-color:#FAB500"/>
		<stop  offset="0.3646" style="stop-color:#F7A817"/>
		<stop  offset="0.4716" style="stop-color:#F4952D"/>
		<stop  offset="0.5757" style="stop-color:#EF7A3C"/>
		<stop  offset="0.6775" style="stop-color:#EA5645"/>
		<stop  offset="0.7758" style="stop-color:#E61E48"/>
		<stop  offset="0.7908" style="stop-color:#E50A48"/>
		<stop  offset="0.8016" style="stop-color:#DF0E4A"/>
		<stop  offset="0.8357" style="stop-color:#CD1751"/>
		<stop  offset="0.8715" style="stop-color:#BE1B56"/>
		<stop  offset="0.9092" style="stop-color:#B31D5A"/>
		<stop  offset="0.9501" style="stop-color:#AC1E5C"/>
		<stop  offset="1" style="stop-color:#AA1E5C"/>
	</linearGradient>
	<path id="B3" class="st2" d="M324.1,439.2l-25.2,7.1c-1.5,0.4-2.5,1.7-2.5,3.3v139.1c0,2.8,3.1,4.4,5.4,2.7l25.2-18.3
		c0.9-0.6,1.4-1.7,1.4-2.7v-128C328.4,440.2,326.2,438.6,324.1,439.2z"/>
	<linearGradient id="B2_1_" gradientUnits="userSpaceOnUse" x1="236.3813" y1="439.0768" x2="236.3813" y2="598.4226">
		<stop  offset="0" style="stop-color:#FCBF00"/>
		<stop  offset="0.1358" style="stop-color:#FCBD00"/>
		<stop  offset="0.2535" style="stop-color:#FAB500"/>
		<stop  offset="0.3646" style="stop-color:#F7A817"/>
		<stop  offset="0.4716" style="stop-color:#F4952D"/>
		<stop  offset="0.5757" style="stop-color:#EF7A3C"/>
		<stop  offset="0.6775" style="stop-color:#EA5645"/>
		<stop  offset="0.7758" style="stop-color:#E61E48"/>
		<stop  offset="0.7908" style="stop-color:#E50A48"/>
		<stop  offset="0.8016" style="stop-color:#DF0E4A"/>
		<stop  offset="0.8357" style="stop-color:#CD1751"/>
		<stop  offset="0.8715" style="stop-color:#BE1B56"/>
		<stop  offset="0.9092" style="stop-color:#B31D5A"/>
		<stop  offset="0.9501" style="stop-color:#AC1E5C"/>
		<stop  offset="1" style="stop-color:#AA1E5C"/>
	</linearGradient>
	<path id="B2" class="st3" d="M249.9,446.3l-25.2-7.1c-2.2-0.6-4.3,1-4.3,3.3v134.3c0,1.1,0.5,2.1,1.4,2.7l25.2,18.3
		c2.2,1.6,5.4,0,5.4-2.7V449.6C252.4,448,251.4,446.7,249.9,446.3z"/>
	<linearGradient id="B1_1_" gradientUnits="userSpaceOnUse" x1="160.3813" y1="415.7336" x2="160.3813" y2="541.3651">
		<stop  offset="0" style="stop-color:#FCBF00"/>
		<stop  offset="0.1358" style="stop-color:#FCBD00"/>
		<stop  offset="0.2535" style="stop-color:#FAB500"/>
		<stop  offset="0.3646" style="stop-color:#F7A817"/>
		<stop  offset="0.4716" style="stop-color:#F4952D"/>
		<stop  offset="0.5757" style="stop-color:#EF7A3C"/>
		<stop  offset="0.6775" style="stop-color:#EA5645"/>
		<stop  offset="0.7758" style="stop-color:#E61E48"/>
		<stop  offset="0.7908" style="stop-color:#E50A48"/>
		<stop  offset="0.8016" style="stop-color:#DF0E4A"/>
		<stop  offset="0.8357" style="stop-color:#CD1751"/>
		<stop  offset="0.8715" style="stop-color:#BE1B56"/>
		<stop  offset="0.9092" style="stop-color:#B31D5A"/>
		<stop  offset="0.9501" style="stop-color:#AC1E5C"/>
		<stop  offset="1" style="stop-color:#AA1E5C"/>
	</linearGradient>
	<path id="B1" class="st4" d="M173.9,422.9l-25.2-7.1c-2.2-0.6-4.3,1-4.3,3.3v100.6c0,1.1,0.5,2.1,1.4,2.7l25.2,18.3
		c2.2,1.6,5.4,0,5.4-2.7V426.2C176.4,424.7,175.4,423.4,173.9,422.9z"/>
</g>
<g>
</g>
<g>
</g>
<g>
</g>
<g>
</g>
<g>
</g>
<g>
</g>
</svg>
